<?xml version="1.0" standalone="no"?>
<!DOCTYPE svg PUBLIC "-//W3C//DTD SVG 20010904//EN"
 "http://www.w3.org/TR/2001/REC-SVG-20010904/DTD/svg10.dtd">
<svg version="1.0" xmlns="http://www.w3.org/2000/svg"
 width="1254.000000pt" height="1254.000000pt" viewBox="0 0 1254.000000 1254.000000"
 preserveAspectRatio="xMidYMid meet">

<g transform="translate(0.000000,1254.000000) scale(0.100000,-0.100000)"
fill="#000000" stroke="none">
<path d="M0 6270 l0 -6270 6270 0 6270 0 0 6270 0 6270 -6270 0 -6270 0 0
-6270z m8177 1409 c107 -14 306 -63 383 -95 205 -83 340 -172 490 -323 190
-191 301 -394 356 -653 28 -130 26 -382 -4 -518 -54 -244 -167 -451 -350 -641
-378 -394 -916 -550 -1450 -419 -299 73 -530 205 -757 434 -135 136 -208 233
-305 406 -80 144 -135 222 -175 249 -51 34 -128 39 -188 13 -54 -24 -81 -59
-179 -232 -141 -251 -291 -433 -474 -576 -592 -463 -1432 -468 -2000 -10 -222
179 -378 404 -462 668 -148 459 -14 973 342 1316 233 224 459 328 836 385 64
10 3863 6 3937 -4z"/>
<path d="M4260 7549 c-519 -51 -936 -387 -1075 -864 -34 -117 -45 -196 -45
-325 0 -316 123 -612 350 -840 218 -220 473 -348 795 -401 92 -15 349 -15 453
0 184 27 399 106 559 205 254 158 413 334 601 666 88 156 142 219 221 257 74
37 200 40 272 7 93 -43 136 -96 268 -329 92 -161 163 -257 281 -375 256 -259
561 -400 926 -430 401 -32 784 109 1070 394 104 105 168 191 230 314 168 330
172 707 9 1037 -176 358 -484 580 -934 673 -68 14 -288 16 -1986 18 -1050 1
-1948 -2 -1995 -7z m230 -659 c0 -43 -6 -59 -38 -103 -50 -67 -162 -235 -162
-241 0 -3 46 -7 103 -8 l102 -3 3 -52 3 -53 -145 -2 c-81 -1 -165 -2 -188 -3
l-43 0 -3 49 c-3 43 1 55 36 105 99 142 154 224 159 237 4 11 -13 14 -96 14
l-101 0 0 55 0 55 185 0 185 0 0 -50z m440 2 c0 -45 -7 -59 -104 -198 -57 -82
-102 -151 -99 -154 3 -3 50 -5 106 -5 l102 0 3 -52 c2 -29 -1 -53 -5 -54 -46
-3 -351 -5 -360 -1 -8 2 -13 23 -13 51 0 44 8 58 100 191 55 78 100 147 100
151 0 5 -45 9 -100 9 l-100 0 0 55 0 55 185 0 185 0 0 -48z m440 -3 c0 -42 -6
-59 -33 -98 -49 -66 -167 -242 -167 -246 0 -3 46 -6 103 -7 l102 -3 0 -53 0
-53 -145 -1 c-80 0 -164 0 -187 1 l-43 1 0 48 c0 43 8 58 100 191 55 79 100
148 100 153 0 4 -45 8 -100 8 l-100 0 0 55 0 55 185 0 185 0 0 -51z m2140 3
c0 -42 -7 -58 -52 -123 -28 -41 -76 -109 -105 -151 -30 -43 -51 -78 -46 -78 4
-1 53 -2 108 -3 l100 -2 3 -52 3 -53 -88 -1 c-48 -1 -133 -2 -188 -3 l-100 -1
-3 47 c-4 55 -3 57 111 220 48 69 87 129 87 132 0 3 -45 6 -100 6 l-100 0 0
55 0 55 185 0 185 0 0 -48z m440 -1 c0 -46 -7 -59 -101 -196 -56 -80 -98 -149
-95 -153 4 -3 50 -6 104 -7 l97 0 3 -52 c2 -39 -1 -53 -10 -53 -7 0 -78 -2
-158 -5 -80 -2 -160 -2 -177 1 -32 6 -33 8 -33 53 0 42 9 59 100 190 55 79
100 148 100 152 0 5 -45 9 -100 9 l-100 0 0 55 0 55 185 0 185 0 0 -49z m443
13 c8 -48 3 -58 -107 -219 l-96 -140 103 -5 102 -5 3 -51 c2 -37 -1 -53 -11
-57 -8 -3 -94 -3 -191 0 l-176 6 0 43 c0 37 12 60 100 190 55 81 100 151 100
155 0 5 -44 10 -97 11 l-98 3 -3 39 c-6 68 -12 66 186 66 l179 0 6 -36z
m-4204 -819 c84 -55 214 -114 311 -140 98 -26 322 -32 432 -11 191 36 392 146
514 280 l66 73 42 -21 c22 -12 43 -22 45 -23 9 -6 -56 -87 -115 -145 -221
-217 -552 -326 -869 -288 -174 21 -326 79 -486 185 -97 65 -253 216 -246 239
2 6 21 21 42 33 l39 22 76 -77 c41 -43 109 -100 149 -127z m4441 152 c0 -18
-71 -106 -127 -157 -374 -342 -969 -369 -1378 -63 -76 56 -215 195 -215 214 0
5 21 19 46 32 l46 22 45 -52 c99 -116 280 -225 461 -280 72 -21 114 -26 238
-30 139 -5 159 -3 260 22 194 47 349 137 474 272 l65 70 42 -20 c24 -12 43
-25 43 -30z"/>
</g>
</svg>
